<svg xmlns="http://www.w3.org/2000/svg" width="200" height="40.573" viewBox="0 0 200 40.573"><path d="M59.061,28.3V20.844h7.816V17.129H59.061V12.107h9.45V8.392H54.93V28.3Zm21.07.446a7.83,7.83,0,0,0,4.012-1.055,8.366,8.366,0,0,0,2.927-2.838,7.806,7.806,0,0,0,0-8.039,8.321,8.321,0,0,0-2.927-2.853,8.127,8.127,0,0,0-8.009,0,8.159,8.159,0,0,0-2.927,2.853,7.564,7.564,0,0,0-1.1,4.027,7.488,7.488,0,0,0,1.1,4.012,8.2,8.2,0,0,0,2.927,2.838A7.855,7.855,0,0,0,80.13,28.749Zm0-3.655a4.173,4.173,0,0,1-1.991-.49,3.673,3.673,0,0,1-1.471-1.441,4.561,4.561,0,0,1-.55-2.318,4.561,4.561,0,0,1,.55-2.318,3.777,3.777,0,0,1,1.471-1.456,4.176,4.176,0,0,1,3.982,0,3.88,3.88,0,0,1,1.486,1.456,4.465,4.465,0,0,1,.565,2.318,4.465,4.465,0,0,1-.565,2.318A3.772,3.772,0,0,1,82.122,24.6,4.172,4.172,0,0,1,80.13,25.094Zm18.1,3.566a7.573,7.573,0,0,0,3.462-.773,5.938,5.938,0,0,0,2.422-2.214A6.394,6.394,0,0,0,105,22.241h0V13.3h-3.833v8.262a3.679,3.679,0,0,1-.818,2.615,3.069,3.069,0,0,1-4.265,0,3.723,3.723,0,0,1-.8-2.615h0l-.03-8.262h-3.8v8.945a6.478,6.478,0,0,0,.877,3.432,5.838,5.838,0,0,0,2.407,2.214A7.641,7.641,0,0,0,98.229,28.66Zm14.859-.357v-9.51a6.732,6.732,0,0,1,1.5-1.545,3.1,3.1,0,0,1,1.888-.654,2.679,2.679,0,0,1,2.005.743,3.109,3.109,0,0,1,.728,2.259h0l.029,8.707h3.774V19.091a6.3,6.3,0,0,0-1.546-4.636,5.2,5.2,0,0,0-3.833-1.545,4.65,4.65,0,0,0-2.689.8,7.648,7.648,0,0,0-1.857,1.724h0V13.3h-3.774V28.3Zm19.941.446a4.937,4.937,0,0,0,2.912-.877,6.064,6.064,0,0,0,1.9-2.1h0V28.3h3.774V6.906h-3.774V14.99a6.353,6.353,0,0,0-4.546-2.08,6.652,6.652,0,0,0-3.522.966,6.861,6.861,0,0,0-2.526,2.749,9.089,9.089,0,0,0-.936,4.279,9.043,9.043,0,0,0,.921,4.25,6.626,6.626,0,0,0,2.452,2.675A6.363,6.363,0,0,0,133.029,28.749Zm.95-3.774a3.413,3.413,0,0,1-2.719-1.189,4.262,4.262,0,0,1-1.026-2.883,4.672,4.672,0,0,1,.476-2.1,4.18,4.18,0,0,1,1.322-1.575,3.4,3.4,0,0,1,2.036-.609,4.321,4.321,0,0,1,2.036.49,6.5,6.5,0,0,1,1.739,1.352h0v2.14a4.648,4.648,0,0,1-.55,2.333,4.079,4.079,0,0,1-1.426,1.5A3.561,3.561,0,0,1,133.979,24.975Zm19.287,3.774a7.448,7.448,0,0,0,3.106-.639,8.787,8.787,0,0,0,2.124-1.263h0l.03-3.507a10.3,10.3,0,0,1-2.14,1.337,6.673,6.673,0,0,1-2.971.654,4.615,4.615,0,0,1-2.913-.921,3.937,3.937,0,0,1-1.485-2.437h10.876v-1.6a8.494,8.494,0,0,0-.847-3.878,6.306,6.306,0,0,0-2.437-2.63,7.246,7.246,0,0,0-3.789-.951,7.067,7.067,0,0,0-3.924,1.114,7.926,7.926,0,0,0-2.7,2.927,8.3,8.3,0,0,0-.98,4.012,7.467,7.467,0,0,0,1.084,4.012,7.808,7.808,0,0,0,2.912,2.764A8.242,8.242,0,0,0,153.266,28.749Zm3-9.361h-7.192a4.472,4.472,0,0,1,1.308-2.318,3.368,3.368,0,0,1,2.348-.862,3.872,3.872,0,0,1,2.347.787,3.079,3.079,0,0,1,1.189,2.392ZM167.115,28.3v-8.38a8.314,8.314,0,0,1,1.517-2.1,2.967,2.967,0,0,1,2.169-.847,4,4,0,0,1,1.991.535h0v-4.25A3.812,3.812,0,0,0,171.335,13a3.609,3.609,0,0,0-2.393.892,8.361,8.361,0,0,0-1.828,2.229h0V13.3h-3.773V28.3Zm12.363,0V6.906H175.7V28.3Zm8.826,7.132L199.21,13.3H194.9l-4.161,9.569L186.462,13.3h-4.4L188.541,27.2l-4.517,8.232Z" transform="translate(0.79 0.098)" fill="#281994"/><g transform="translate(0 5.134)"><g transform="translate(0 0)"><path d="M0,20.012l8.529-.147L3.235,35.452l20.44-21.47L11.47,13.542,13.382,8.1h8.676L28.528.013H7.353L0,20.012" transform="translate(0 -0.013)" fill="#281994"/></g></g><path d="M25.2,0,21.086,5.124h7.181l-6.3,7.953L13.292,13l-2.353,6.343h12.34L33,8.592l.122,7.649,4.975-5.88V0H25.2" transform="translate(0.157 -0.001)" fill="#f36009"/></svg>